<svg xmlns="http://www.w3.org/2000/svg">
  <symbol id="add" viewBox="0 0 24 24">
    <path d="M12.0001 1.94995C12.718 1.94995 13.3001 2.53198 13.3001 3.24995V10.7H20.7501C21.468 10.7 22.0501 11.282 22.0501 12C22.0501 12.7179 21.468 13.3 20.7501 13.3H13.3001V20.75C13.3001 21.4679 12.718 22.0499 12.0001 22.0499C11.2821 22.0499 10.7001 21.4679 10.7001 20.75V13.3H3.25007C2.5321 13.3 1.95007 12.7179 1.95007 12C1.95007 11.282 2.5321 10.7 3.25007 10.7H10.7001V3.24995C10.7001 2.53198 11.2821 1.94995 12.0001 1.94995Z" fill="#171719"/>
  </symbol>

  <symbol id="cancel" viewBox="0 0 24 24">
    <path fill-rule="evenodd" clip-rule="evenodd" d="M4.33083 4.33071C4.83852 3.82303 5.66163 3.82303 6.16931 4.33071L12.0001 10.1615L17.8308 4.33071C18.3385 3.82303 19.1616 3.82303 19.6693 4.33071C20.177 4.83839 20.177 5.66151 19.6693 6.16919L13.8385 12L19.6693 17.8307C20.177 18.3384 20.177 19.1615 19.6693 19.6692C19.1616 20.1769 18.3385 20.1769 17.8308 19.6692L12.0001 13.8384L6.16931 19.6692C5.66163 20.1769 4.83852 20.1769 4.33083 19.6692C3.82315 19.1615 3.82315 18.3384 4.33083 17.8307L10.1616 12L4.33083 6.16919C3.82315 5.66151 3.82315 4.83839 4.33083 4.33071Z" fill="currentColor"/>
  </symbol>

  <symbol id="search" viewBox="0 0 24 24">
    <path fill-rule="evenodd" clip-rule="evenodd" d="M10.0002 1.69995C5.41623 1.69995 1.7002 5.41599 1.7002 9.99995C1.7002 14.5839 5.41623 18.3 10.0002 18.3C11.8231 18.3 13.5087 17.7123 14.878 16.7161L19.5811 21.4192C20.0888 21.9268 20.9119 21.9268 21.4196 21.4192C21.9272 20.9115 21.9272 20.0884 21.4196 19.5807L16.7165 14.8776C17.7126 13.5083 18.3002 11.8228 18.3002 9.99995C18.3002 5.41599 14.5841 1.69995 10.0002 1.69995ZM4.30019 9.99995C4.30019 6.85193 6.85217 4.29995 10.0002 4.29995C13.1482 4.29995 15.7002 6.85193 15.7002 9.99995C15.7002 13.148 13.1482 15.7 10.0002 15.7C6.85217 15.7 4.30019 13.148 4.30019 9.99995Z" fill="currentColor" />
  </symbol>

  <symbol id="book" viewBox="0 0 24 24">
    <path fill-rule="evenodd" clip-rule="evenodd" d="M12.0001 5.19949C11.6723 4.76888 11.2736 4.41152 10.8364 4.12352C9.70701 3.37951 8.33585 3.1001 7.2501 3.1001C6.16434 3.1001 4.79319 3.37951 3.66377 4.12352C2.49391 4.89417 1.6001 6.16138 1.6001 8.0001V20.4882C1.6001 21.4487 2.76098 21.8062 3.34733 21.1618C4.31344 20.1001 5.70353 19.4357 7.2501 19.4357C8.88134 19.4357 10.3391 20.1751 11.3081 21.3403H12.6921C13.6625 20.1734 15.1209 19.4294 16.7501 19.4294C18.2966 19.4294 19.6867 20.0938 20.6529 21.1555C21.2392 21.7999 22.4001 21.4424 22.4001 20.4819V8.0001C22.4001 6.16138 21.5063 4.89417 20.3364 4.12352C19.207 3.37951 17.8359 3.1001 16.7501 3.1001C15.6643 3.1001 14.2932 3.37951 13.1638 4.12352C12.7266 4.41152 12.3279 4.76888 12.0001 5.19949ZM4.65398 5.62668C3.92633 6.10602 3.4001 6.83881 3.4001 8.0001V18.7742C4.50791 18.0544 5.83041 17.6357 7.2501 17.6357C8.66994 17.6357 9.99233 18.0544 11.1001 18.7742V8.0001C11.1001 6.83881 10.5739 6.10602 9.84621 5.62668C9.0781 5.12068 8.07426 4.9001 7.2501 4.9001C6.42594 4.9001 5.42209 5.12068 4.65398 5.62668ZM12.9001 18.7724C14.0072 18.0512 15.3294 17.6294 16.7501 17.6294C18.1698 17.6294 19.4923 18.0481 20.6001 18.7678V8.0001C20.6001 6.83881 20.0739 6.10602 19.3462 5.62668C18.5781 5.12068 17.5743 4.9001 16.7501 4.9001C15.9259 4.9001 14.9221 5.12068 14.154 5.62668C13.4263 6.10602 12.9001 6.83881 12.9001 8.0001V18.7724Z" fill="currentColor"/>
  </symbol>
</svg>