<svg width="98" height="46" viewBox="0 0 98 46" fill="none" xmlns="http://www.w3.org/2000/svg">
<rect width="98" height="46" rx="2" fill="white"/>
<path d="M48.1324 38.1406H45C43.8954 38.1406 43 37.2452 43 36.1406V26C43 24.8954 43.8954 24 45 24H48.1928C52.5804 24 55.2573 26.6562 55.2573 31.0508C55.2573 35.4844 52.5804 38.1406 48.1324 38.1406ZM46.019 33.6285C46.019 34.729 46.9112 35.6211 48.0116 35.6211V35.6211C50.7891 35.6211 52.2383 34.2148 52.2383 31.0508C52.2383 27.9062 50.7891 26.5195 48.0317 26.5195V26.5195C46.9272 26.5195 46.019 27.415 46.019 28.5195V33.6285Z" fill="black"/>
<path d="M58.6145 38.1406C57.8742 38.1406 57.2741 37.5405 57.2741 36.8002V29.9362C57.2741 29.1958 57.8742 28.5957 58.6145 28.5957V28.5957C59.3548 28.5957 59.955 29.1958 59.955 29.9362V36.8002C59.955 37.5405 59.3548 38.1406 58.6145 38.1406V38.1406ZM58.6145 27.3477C57.7994 27.3477 57.1473 26.75 57.1473 26.0293C57.1473 25.291 57.7994 24.6934 58.6145 24.6934C59.4115 24.6934 60.0637 25.291 60.0637 26.0293C60.0637 26.75 59.4115 27.3477 58.6145 27.3477Z" fill="black"/>
<path d="M61.5671 35.4688C61.5671 33.3418 63.3423 32.6387 65.2262 32.5332C65.6672 32.5058 66.3482 32.4715 66.899 32.4453C67.3309 32.4248 67.6717 32.0691 67.6717 31.6367V31.6367C67.6535 30.8457 67.092 30.3711 66.0957 30.3711C65.6945 30.3711 65.3573 30.4504 65.0935 30.5953C64.543 30.8977 64.0187 31.4258 63.3907 31.4258V31.4258C62.5983 31.4258 61.9618 30.7021 62.4148 30.0519C63.0732 29.1068 64.347 28.4727 66.1682 28.4727C68.3057 28.4727 70.3345 29.4043 70.3345 31.707V36.8726C70.3345 37.5729 69.7668 38.1406 69.0665 38.1406H68.4576C68.0936 38.1406 67.7985 37.8455 67.7985 37.4814V36.8679C67.7985 36.8427 67.778 36.8223 67.7528 36.8223V36.8223C67.7363 36.8223 67.721 36.8313 67.7128 36.8457C67.2204 37.7121 66.3 38.3164 64.8458 38.3164C62.9619 38.3164 61.5671 37.3672 61.5671 35.4688ZM64.1394 35.3984C64.1394 36.1367 64.7553 36.5234 65.6066 36.5234C66.8203 36.5234 67.6898 35.7324 67.6717 34.7305V34.7305C67.6717 34.3471 67.3522 34.0417 66.9695 34.0629C66.497 34.089 65.9479 34.1231 65.661 34.1504C64.7371 34.2383 64.1394 34.6602 64.1394 35.3984Z" fill="black"/>
<path d="M73.7218 38.1406C72.9815 38.1406 72.3814 37.5405 72.3814 36.8002V29.8909C72.3814 29.1756 72.9612 28.5957 73.6765 28.5957H74.1455C74.6018 28.5957 74.9717 28.9656 74.9717 29.4219V30.1855C74.9717 30.2201 74.9997 30.248 75.0342 30.248V30.248C75.0617 30.248 75.0859 30.2299 75.0944 30.2038C75.4656 29.0549 76.3623 28.4551 77.4534 28.4551V28.4551C77.9545 28.4551 78.3047 28.8992 78.3047 29.4003V29.7109C78.3047 30.2903 77.7429 30.7227 77.1635 30.7227V30.7227C75.9499 30.7227 75.0623 31.5488 75.0623 32.709V36.8002C75.0623 37.5405 74.4621 38.1406 73.7218 38.1406V38.1406Z" fill="black"/>
<path d="M81.4929 41.7266C81.3471 41.7266 81.2042 41.7252 81.0663 41.7225C80.5362 41.7121 80.1343 41.2704 80.1343 40.7401V40.7401C80.1343 40.1486 80.6297 39.6875 81.2211 39.6875V39.6875C81.7465 39.6875 82.1812 39.6348 82.5073 38.8086V38.8086C82.6123 38.5482 82.6177 38.2583 82.5226 37.9942L79.7614 30.3268C79.458 29.4842 80.0823 28.5957 80.9779 28.5957V28.5957C81.5516 28.5957 82.0568 28.9738 82.2184 29.5243L83.9954 35.5747C84.0045 35.6057 84.0329 35.627 84.0652 35.627V35.627C84.0973 35.627 84.1257 35.6058 84.1348 35.5749L85.9249 29.5329C86.0896 28.977 86.6003 28.5957 87.18 28.5957V28.5957C88.0877 28.5957 88.7199 29.4971 88.4107 30.3506L85.2063 39.1953C84.6447 40.7246 83.576 41.7266 81.4929 41.7266Z" fill="black"/>
<path d="M9 19.524C8.44771 19.524 8 19.0763 8 18.524V6C8 5.44771 8.44772 5 9 5H13.8297C17.2168 5 19.1463 6.86565 19.1463 9.73434C19.1463 11.2969 18.5682 12.5242 17.4968 13.3184C17.0161 13.6748 16.7752 14.3256 17.0671 14.848L18.8486 18.0362C19.2211 18.7027 18.7393 19.524 17.9757 19.524H16.8641C16.4992 19.524 16.1633 19.3253 15.9876 19.0055L13.7246 14.8868C13.5489 14.5671 13.213 14.3684 12.8482 14.3684H12.0791C11.5268 14.3684 11.0791 14.8161 11.0791 15.3684V18.524C11.0791 19.0763 10.6314 19.524 10.0791 19.524H9ZM11.0791 10.921C11.0791 11.4732 11.5268 11.921 12.0791 11.921H13.255C15.0819 11.921 15.9646 11.1787 15.9646 9.73434C15.9646 8.2699 15.0819 7.46747 13.255 7.46747H12.0791C11.5268 7.46747 11.0791 7.91519 11.0791 8.46747V10.921Z" fill="black"/>
<path d="M25.6453 19.7226C22.5785 19.7226 20.6941 17.7727 20.6941 14.6673C20.6941 11.6341 22.597 9.59391 25.5344 9.59391C28.1763 9.59391 30.2454 11.2188 30.2454 14.559V14.559C30.2454 14.9777 29.9059 15.3172 29.4871 15.3172H24.3914C23.8391 15.3172 23.3643 15.7795 23.5487 16.3001C23.8653 17.194 24.6409 17.7185 25.7007 17.7185C26.3284 17.7185 26.8366 17.5351 27.1849 17.2306C27.4777 16.9746 27.8154 16.7255 28.2044 16.7255H28.9338C29.5707 16.7255 30.0494 17.3287 29.7076 17.8661C28.9763 19.0158 27.5519 19.7226 25.6453 19.7226ZM23.6788 12.6475C23.3917 13.138 23.8648 13.6382 24.4331 13.6382H26.659C27.2113 13.6382 27.6878 13.1655 27.442 12.6709C27.1151 12.0133 26.4429 11.598 25.5898 11.598C24.7341 11.598 24.0455 12.0211 23.6788 12.6475Z" fill="black"/>
<path d="M31.4832 16.7797C31.4832 14.5951 33.2937 13.8729 35.2151 13.7645C35.6634 13.7365 36.3548 13.7014 36.9156 13.6745C37.3592 13.6533 37.7091 13.2878 37.7091 12.8438V12.8438C37.6907 12.0313 37.118 11.5438 36.1019 11.5438C35.5564 11.5438 35.1268 11.6886 34.8361 11.9448C34.4842 12.2549 34.1053 12.6271 33.6362 12.6271H32.937C32.3462 12.6271 31.8713 12.1009 32.1361 11.5728C32.7201 10.4082 34.0989 9.59391 36.1758 9.59391C38.3557 9.59391 40.4249 10.5508 40.4249 12.916V18.524C40.4249 19.0763 39.9772 19.524 39.4249 19.524H38.5155C38.1416 19.524 37.8385 19.2209 37.8385 18.8469V18.2164C37.8385 18.1907 37.8177 18.1699 37.792 18.1699V18.1699C37.7751 18.1699 37.7595 18.1791 37.7512 18.1938C37.249 19.0838 36.3103 19.7045 34.8271 19.7045C32.9058 19.7045 31.4832 18.7296 31.4832 16.7797ZM34.1066 16.7075C34.1066 17.4658 34.7347 17.863 35.603 17.863C36.8408 17.863 37.7276 17.0505 37.7091 16.0214V16.0214C37.7091 15.6277 37.3811 15.3141 36.988 15.336C36.5072 15.3628 35.9501 15.3976 35.6585 15.4256C34.7163 15.5158 34.1066 15.9492 34.1066 16.7075Z" fill="black"/>
<path d="M46.2074 19.6865C43.9166 19.6865 42.1246 17.8991 42.1246 14.6312C42.1246 11.273 43.9905 9.59391 46.2074 9.59391C47.8659 9.59391 48.6614 10.5427 49.0373 11.3309C49.0467 11.3507 49.0665 11.3633 49.0885 11.3633V11.3633C49.1196 11.3633 49.1449 11.338 49.1449 11.3069V7.4524C49.1449 6.90011 49.5926 6.4524 50.1449 6.4524H50.8791C51.4314 6.4524 51.8791 6.90011 51.8791 7.4524V18.524C51.8791 19.0763 51.4314 19.524 50.8791 19.524H49.9672C49.5335 19.524 49.1818 19.1724 49.1818 18.7386V18.0325C49.1818 17.9887 49.1463 17.9532 49.1025 17.9532V17.9532C49.072 17.9532 49.0443 17.9706 49.0307 17.998C48.6338 18.7991 47.8034 19.6865 46.2074 19.6865ZM47.0573 17.556C48.4244 17.556 49.2003 16.3825 49.2003 14.6131C49.2003 12.8438 48.4244 11.7244 47.0573 11.7244C45.6717 11.7244 44.9327 12.8979 44.9327 14.6131C44.9327 16.3464 45.6717 17.556 47.0573 17.556Z" fill="black"/>
<path d="M55.0776 19.524C54.5253 19.524 54.0776 19.0763 54.0776 18.524V10.7203C54.0776 10.168 54.5253 9.7203 55.0776 9.7203H55.8118C56.3641 9.7203 56.8118 10.168 56.8118 10.7203V18.524C56.8118 19.0763 56.3641 19.524 55.8118 19.524H55.0776ZM55.4447 8.43841C54.6134 8.43841 53.9483 7.82455 53.9483 7.08431C53.9483 6.32602 54.6134 5.71216 55.4447 5.71216C56.2576 5.71216 56.9227 6.32602 56.9227 7.08431C56.9227 7.82455 56.2576 8.43841 55.4447 8.43841Z" fill="black"/>
<path d="M61.6706 13.8548V18.524C61.6706 19.0763 61.2229 19.524 60.6706 19.524H59.9364C59.3841 19.524 58.9364 19.0763 58.9364 18.524V10.7203C58.9364 10.168 59.3841 9.7203 59.9364 9.7203H60.6837C61.1574 9.7203 61.5413 10.1043 61.5413 10.5779V11.3692C61.5413 11.4058 61.571 11.4355 61.6076 11.4355V11.4355C61.6345 11.4355 61.6588 11.419 61.6693 11.3942C62.1402 10.281 63.2035 9.59391 64.6635 9.59391C66.7511 9.59391 68.1367 10.9841 68.1183 13.2771V18.524C68.1183 19.0763 67.6705 19.524 67.1183 19.524H66.4025C65.8502 19.524 65.4025 19.0763 65.4025 18.524V13.7465C65.4025 12.5368 64.7189 11.8146 63.592 11.8146C62.4466 11.8146 61.6706 12.5549 61.6706 13.8548Z" fill="black"/>
<path d="M74.7506 23.4057C72.5427 23.4057 71.015 22.6379 70.4011 21.3852C70.1426 20.8577 70.6195 20.3364 71.2069 20.3364H71.9832C72.4634 20.3364 72.8506 20.7291 73.2191 21.037C73.5728 21.3327 74.1244 21.4739 74.8061 21.4739C76.0808 21.4739 76.9306 20.9503 76.9306 19.5782V17.8697C76.9306 17.8261 76.8953 17.7907 76.8517 17.7907V17.7907C76.8209 17.7907 76.7932 17.8085 76.7797 17.836C76.3978 18.6151 75.5145 19.3795 73.9377 19.3795C71.6654 19.3795 69.8549 17.8268 69.8549 14.559C69.8549 11.2369 71.7208 9.59391 73.9377 9.59391C75.5917 9.59391 76.4052 10.5375 76.783 11.3245C76.7944 11.3482 76.8181 11.3633 76.8445 11.3633V11.3633C76.8818 11.3633 76.9122 11.333 76.9122 11.2956V10.5418C76.9122 10.0881 77.2799 9.7203 77.7336 9.7203H78.6279C79.1802 9.7203 79.6279 10.168 79.6279 10.7203V19.6323C79.6279 22.1239 77.5957 23.4057 74.7506 23.4057ZM74.7876 17.3755C76.1547 17.3755 76.9306 16.3283 76.9306 14.5951C76.9306 12.8438 76.1547 11.7244 74.7876 11.7244C73.402 11.7244 72.663 12.8979 72.663 14.5951C72.663 16.2922 73.402 17.3755 74.7876 17.3755Z" fill="black"/>
</svg>
